<svg id="Layer_1" data-name="Layer 1" xmlns="http://www.w3.org/2000/svg" viewBox="0 0 4500 4500"><defs><style>.cls-1{fill:#fff;}</style></defs><path class="cls-1" d="M434,997.3C434,998.9,1570.5,2134,1572.2,2134c1.5,0,447.8-446,447.8-447.5,0-.6-155.1-156.1-344.8-345.8L1330.5,996H882.2C523.4,996,434,996.3,434,997.3Z"/><path class="cls-1" d="M3170,997c-3.7,2.3-2505.9,2505.5-2505.2,2506.2.4.4,202.3.7,448.5.6l447.7-.3L2813.5,2251C3502.4,1562.1,4066,997.9,4066,997.3c0-1-90.1-1.3-447.2-1.3C3346.4,996,3170.9,996.4,3170,997Z"/></svg>