<?xml version="1.0" standalone="no"?>
<!DOCTYPE svg PUBLIC "-//W3C//DTD SVG 20010904//EN"
 "http://www.w3.org/TR/2001/REC-SVG-20010904/DTD/svg10.dtd">
<svg version="1.0" xmlns="http://www.w3.org/2000/svg"
 width="4500.000000pt" height="4500.000000pt" viewBox="0 0 4500.000000 4500.000000"
 preserveAspectRatio="xMidYMid meet">

<g transform="translate(0.000000,4500.000000) scale(0.100000,-0.100000)"
fill="#000000" stroke="none">
<path d="M4340 35027 c0 -16 11365 -11367 11382 -11367 15 0 4478 4460 4478
4475 0 6 -1551 1561 -3448 3458 l-3447 3447 -4483 0 c-3588 0 -4482 -3 -4482
-13z"/>
<path d="M31700 35030 c-37 -23 -25059 -25055 -25052 -25062 4 -4 2023 -7
4485 -6 l4477 3 12525 12525 c6889 6889 12525 12531 12525 12537 0 10 -901 13
-4472 13 -2724 0 -4479 -4 -4488 -10z"/>
</g>
</svg>
